<svg width="650" height="649" xmlns="http://www.w3.org/2000/svg" xmlns:xlink="http://www.w3.org/1999/xlink" overflow="hidden"><defs><clipPath id="clip0"><rect x="1550" y="1302" width="650" height="649"/></clipPath></defs><g clip-path="url(#clip0)" transform="translate(-1550 -1302)"><path d="M187.998 0.0758832C192.778 0.256422 196.853 0.45024 200.343 0.657654 203.834 0.864752 206.739 1.08576 209.175 1.31973 211.61 1.55402 213.577 1.80159 215.191 2.06276 216.807 2.32392 218.068 2.59837 219.093 2.88641 220.119 3.17444 220.909 3.47576 221.579 3.79068 222.251 4.10559 222.802 4.43379 223.349 4.77558 224.109 5.76807 224.844 6.76973 225.551 7.78055 226.257 8.79169 226.941 9.81169 227.596 10.8412 228.252 11.8703 228.882 12.909 229.485 13.9568 230.09 15.0046 230.666 16.0616 231.219 17.1278 231.772 18.1942 232.297 19.2696 232.798 20.3541 233.298 21.4389 233.771 22.5329 234.219 23.636 234.669 24.7392 235.091 25.8515 235.488 26.973 235.885 28.0948 236.254 29.2254 236.599 30.3653 236.944 31.5054 237.262 32.6547 237.556 33.8132 237.848 34.9717 238.116 36.1394 238.356 37.3165 238.597 38.4933 238.812 39.6793 239.001 40.8748 239.19 42.0699 239.353 43.2749 239.489 44.4884 239.627 45.7022 239.739 46.9255 239.823 48.1577 239.91 49.3898 239.969 50.6314 240.002 51.8819 240.036 53.1327 240.044 54.3927 240.025 55.6619 240.007 56.931 239.963 58.2093 239.891 59.4971 237.864 63.1417 235.865 66.7974 233.896 70.4641 231.928 74.1309 229.989 77.8087 228.079 81.4972 226.169 85.1861 224.291 88.886 222.442 92.5967 220.591 96.3077 218.771 100.029 216.983 103.763 215.192 107.495 213.434 111.239 211.704 114.994 209.972 118.749 208.274 122.515 206.603 126.292 204.932 130.069 203.292 133.857 201.682 137.656 200.072 141.455 198.491 145.266 196.939 149.087 195.389 152.908 193.867 156.74 192.376 160.584 190.885 164.427 189.423 168.281 187.993 172.147 186.561 176.012 185.16 179.888 183.788 183.776 182.417 187.663 181.074 191.561 179.761 195.471 178.45 199.381 177.169 203.3 175.916 207.232 174.663 211.164 173.441 215.106 172.248 219.06 171.056 223.014 169.893 226.979 168.76 230.955 167.627 234.929 166.524 238.916 165.451 242.915 164.308 241.626 163.207 240.32 162.147 238.999 161.087 237.678 160.069 236.34 159.092 234.988 158.115 233.636 157.18 232.269 156.286 230.884 155.392 229.5 154.54 228.099 153.729 226.685 152.918 225.27 152.149 223.837 151.421 222.392 150.694 220.945 150.007 219.482 149.363 218.004 148.718 216.525 148.114 215.031 147.553 213.521 146.991 212.011 146.471 210.487 145.993 208.945 145.514 207.405 145.077 205.848 144.681 204.275 144.285 202.703 143.931 201.114 143.619 199.511 143.306 197.905 143.035 196.286 142.806 194.65 142.576 193.015 142.388 191.364 142.242 189.697 142.095 188.03 141.99 186.347 141.927 184.649 141.863 182.951 141.841 181.236 141.861 179.507 141.881 177.777 141.942 176.032 142.044 174.27 142.147 172.509 142.291 170.732 142.477 168.94L143.223 165.663 143.969 162.385 144.748 159.122 145.527 155.859 146.339 152.608 147.151 149.358 147.996 146.122 148.841 142.885 149.719 139.661 150.597 136.438 151.508 133.228 152.419 130.018 153.363 126.821 154.307 123.625 155.284 120.441 156.261 117.258 156.146 117.068 156.031 116.878 155.916 116.688 155.802 116.498 155.687 116.308 155.572 116.118 155.457 115.929 155.342 115.738 155.227 115.549 155.112 115.358 154.997 115.168 154.883 114.978 154.768 114.788 154.653 114.598 154.538 114.408 154.423 114.218C153.052 115.202 151.693 116.201 150.347 117.216 149.001 118.23 147.668 119.259 146.348 120.303 145.028 121.348 143.72 122.406 142.425 123.481 141.13 124.555 139.848 125.644 138.578 126.749 137.308 127.853 136.052 128.972 134.808 130.107 133.563 131.241 132.332 132.39 131.113 133.555 129.894 134.719 128.688 135.898 127.495 137.093 126.302 138.287 125.121 139.497 123.953 140.722 122.786 141.946 121.63 143.185 120.488 144.44 119.346 145.694 118.216 146.964 117.099 148.248 115.982 149.533 114.877 150.833 113.786 152.147 112.694 153.462 111.615 154.792 110.549 156.136 109.483 157.481 108.429 158.84 107.389 160.215 106.348 161.59 105.32 162.98 104.304 164.384 103.289 165.789 102.286 167.209 101.296 168.644 100.306 170.078 99.3289 171.528 98.3643 172.993 94.3558 178.619 90.5468 184.278 86.9364 189.972 83.326 195.664 79.915 201.391 76.7029 207.151 73.4906 212.913 70.4777 218.706 67.6637 224.534 64.8497 230.361 62.2346 236.222 59.8189 242.118 57.403 248.014 55.1862 253.942 53.1683 259.905 51.1505 265.867 49.3321 271.864 47.7123 277.894 46.0927 283.923 44.6721 289.987 43.4509 296.083 42.2292 302.182 41.2069 308.313 40.3835 314.476 39.5602 320.641 38.936 326.839 38.5106 333.071 38.0856 339.303 37.8595 345.57 37.8325 351.869 37.8055 358.168 37.9775 364.501 38.3486 370.867 38.7197 377.233 39.2897 383.634 40.0591 390.068 40.8283 396.503 41.7966 402.97 42.9642 409.472 44.1317 415.974 45.4981 422.508 47.0637 429.077 48.6293 435.645 50.3938 442.248 52.3577 448.884 54.3214 455.519 56.4842 462.189 58.8459 468.893 58.6688 469.141 58.4879 469.376 58.3041 469.599 58.1199 469.822 57.9329 470.034 57.7422 470.235 57.552 470.436 57.358 470.624 57.1609 470.802 56.964 470.981 56.7637 471.147 56.5599 471.301 56.3566 471.457 56.1496 471.601 55.9394 471.733 55.7292 471.865 55.5159 471.984 55.2993 472.094 55.0827 472.203 54.8627 472.3 54.6394 472.387 54.4162 472.473 54.1897 472.547 53.9601 472.61 53.7302 472.675 53.4971 472.726 53.2608 472.767 53.0248 472.807 52.7851 472.837 52.5421 472.853 52.2994 472.872 52.0533 472.878 51.804 472.872 51.5546 472.868 51.3018 472.85 51.0461 472.821 50.7901 472.793 50.5309 472.754 50.2685 472.704 50.0061 472.651 49.7403 472.588 49.4712 472.515 49.2025 472.44 48.9299 472.355 48.6545 472.258 48.3788 472.163 48.1002 472.053 47.8181 471.933 46.5088 470.716 45.2299 469.475 43.9815 468.216 42.7331 466.958 41.5148 465.679 40.3273 464.378 39.1395 463.079 37.9821 461.759 36.8549 460.42 35.7279 459.08 34.6315 457.72 33.5651 456.34 32.4988 454.962 31.4629 453.561 30.4574 452.141 29.4517 450.72 28.4766 449.281 27.5318 447.82 26.5872 446.358 25.6728 444.879 24.7885 443.377 23.9045 441.877 23.0507 440.355 22.2276 438.815 21.4042 437.273 20.6113 435.712 19.8488 434.131 19.0863 432.548 18.3542 430.947 17.6523 429.326 16.9507 427.705 16.279 426.063 15.6379 424.401 14.9969 422.739 14.3866 421.057 13.8062 419.354 13.2258 417.652 12.6761 415.929 12.1565 414.186 11.637 412.443 11.1479 410.68 10.6892 408.899 10.2306 407.115 9.80205 405.311 9.40427 403.489 9.00621 401.665 8.63858 399.823 8.3014 397.958 7.45366 393.797 6.67058 389.641 5.95243 385.486 5.23429 381.333 4.58138 377.184 3.99313 373.04 3.40516 368.895 2.88185 364.753 2.42377 360.616 1.96569 356.48 1.57226 352.347 1.24406 348.219 0.915871 344.09 0.652619 339.966 0.454021 335.846 0.255713 331.725 0.122348 327.609 0.0539259 323.497-0.0144962 319.385-0.0179753 315.276 0.0437786 311.172 0.105242 307.068 0.231649 302.97 0.423289 298.874 0.614639 294.778 0.870932 290.687 1.19246 286.599 1.51369 282.513 1.90016 278.429 2.35158 274.349 2.8027 270.269 3.31905 266.196 3.90035 262.124 4.48165 258.052 5.12789 253.987 5.83907 249.923 6.55026 245.859 7.32639 241.802 8.16746 237.747 9.00853 233.693 9.91454 229.642 10.8858 225.596 11.8567 221.549 12.8926 217.508 13.9938 213.468 15.0946 209.431 16.2607 205.396 17.4914 201.367 18.133 199.74 18.7868 198.122 19.453 196.513 20.1196 194.904 20.7986 193.305 21.4903 191.715 22.1818 190.125 22.8857 188.545 23.6024 186.974 24.3191 185.402 25.0483 183.841 25.7902 182.288 26.5321 180.735 27.2865 179.192 28.0536 177.658 28.8205 176.124 29.6001 174.6 30.3922 173.085 31.1843 171.57 31.9888 170.064 32.8061 168.567 33.6234 167.071 34.4531 165.584 35.2957 164.106 36.1382 162.628 36.9932 161.16 37.8606 159.701 38.7281 158.241 39.6083 156.792 40.501 155.351 41.3936 153.911 42.2991 152.48 43.217 151.058 44.1349 149.636 45.0652 148.224 46.0081 146.821 46.9512 145.418 47.9068 144.024 48.8749 142.639 49.8432 141.255 50.824 139.88 51.817 138.514 52.8106 137.149 53.8163 135.792 54.8348 134.445 55.8533 133.098 56.8846 131.76 57.928 130.432L62.0887 126.065 66.2497 121.698 70.4101 117.331 74.5711 112.964 78.7533 108.637 82.9354 104.31 87.1176 99.9833 91.3 95.6564 95.5037 91.3696 99.7073 87.0829 103.911 82.7964 108.114 78.5097 112.34 74.2634 116.565 70.0167 120.79 65.7701 125.015 61.5238 123.533 61.2244 122.051 60.9256 120.565 60.6578 119.08 60.3897 117.592 60.1529 116.103 59.9164 114.611 59.7106 113.119 59.505 111.624 59.3305 110.129 59.1563 108.631 59.0131 107.133 58.8698 105.631 58.7576 104.13 58.6457 102.625 58.5644 101.121 58.4838C100.642 58.2938 100.173 58.093 99.7133 57.8818 99.2535 57.6709 98.8039 57.4492 98.3635 57.2168 97.9231 56.9848 97.4922 56.7419 97.071 56.4887 96.6497 56.2354 96.2383 55.9714 95.8362 55.697 95.4341 55.4225 95.0415 55.1376 94.6585 54.842 94.2758 54.5464 93.9024 54.2403 93.5385 53.9238 93.175 53.607 92.8207 53.2798 92.476 52.9421 92.1315 52.6044 91.7964 52.256 91.4708 51.8971 91.1455 51.5379 90.8295 51.169 90.5233 50.7889 90.2169 50.4089 89.9203 50.0184 89.633 49.6168 89.3459 49.2159 89.0682 48.8042 88.8003 48.3821 88.5321 47.9597 88.2738 47.5269 88.0251 47.0836 87.776 46.6403 87.5368 46.1863 87.3072 45.7221 87.0776 45.2573 86.8572 44.7824 86.6468 44.2968 86.4363 43.8111 86.2351 43.315 86.0437 42.8085 85.8524 42.3017 85.6706 41.7844 85.4984 41.2564 85.2745 40.7334 85.0562 40.2089 84.8434 39.6825 84.6306 39.1563 84.4239 38.6286 84.2221 38.099 84.0206 37.5694 83.8249 37.0382 83.6347 36.5055 83.4445 35.973 83.2599 35.4384 83.0807 34.9025 82.9018 34.3665 82.7284 33.8287 82.5606 33.2896 82.393 32.7505 82.2309 32.2095 82.0741 31.6673 81.9175 31.1247 81.7668 30.5806 81.6215 30.0349 81.4762 29.4891 81.3365 28.9418 81.2023 28.3929 81.0683 27.8441 80.9399 27.2936 80.817 26.7415 80.694 26.1892 80.5769 25.6355 80.4653 25.08 80.354 24.5248 80.2478 23.9677 80.1475 23.409 80.0472 22.8506 79.9524 22.2904 79.8634 21.7285 79.7741 21.1667 79.6909 20.6032 79.6129 20.0382 79.5352 19.4729 79.463 18.9063 79.3963 18.3381 79.3297 17.7699 79.2688 17.2002 79.2134 16.6285 79.158 16.0569 79.1084 15.484 79.0644 14.9091L86.3861 14.2803 93.7079 13.6511 101.006 12.9125 108.303 12.1736 115.577 11.3249 122.85 10.4763 130.1 9.51796 137.349 8.55962 144.574 7.49125 151.799 6.42319 159 5.24511 166.201 4.06702 173.378 2.77922 180.555 1.4911 187.707 0.093273C187.707 0.093273 183.221-0.104656 187.998 0.0758832Z" fill="#FFF" fill-rule="evenodd" transform="matrix(-0.530449 -0.847717 -0.847717 0.530449 2007.09 1500.18)"/></g></svg>